<svg width="0" height="0" class="hidden">
      <symbol fill="none" xmlns="http://www.w3.org/2000/svg" viewBox="0 0 20 20" id="exit"
            >
            <path
                  fill-rule="evenodd"
                  d="M8.32 2h.93a.75.75 0 1 1 0 1.5h-.9c-1 0-1.7 0-2.24.04a2.9 2.9 0 0 0-1.1.26A2.75 2.75 0 0 0 3.8 5c-.13.25-.21.57-.26 1.11-.04.55-.04 1.25-.04 2.24v3.3c0 1 0 1.7.04 2.24.05.53.13.86.26 1.1A2.75 2.75 0 0 0 5 16.2c.25.13.57.21 1.11.26.55.04 1.25.04 2.24.04h.9a.75.75 0 0 1 0 1.5h-.93c-.96 0-1.72 0-2.33-.05a4.39 4.39 0 0 1-1.67-.41 4.25 4.25 0 0 1-1.86-1.86A4.38 4.38 0 0 1 2.05 14C2 13.4 2 12.64 2 11.68V8.32c0-.96 0-1.72.05-2.33.05-.63.16-1.17.41-1.67a4.25 4.25 0 0 1 1.86-1.86c.5-.25 1.04-.36 1.67-.41C6.6 2 7.36 2 8.32 2Zm5.9 4.97a.75.75 0 0 1 1.06 0l2.5 2.5a.75.75 0 0 1 0 1.06l-2.5 2.5a.75.75 0 1 1-1.06-1.06l1.22-1.22H8.75a.75.75 0 0 1 0-1.5h6.69l-1.22-1.22a.75.75 0 0 1 0-1.06Z"
                  clip-rule="evenodd"
                  fill="currentColor"
            ></path>
      </symbol>
      <symbol fill="none" xmlns="http://www.w3.org/2000/svg" viewBox="0 0 24 24" id="icon-load"
            >
            <path
                  d="M14.2647 15.9377L12.5473 14.2346C11.758 13.4519 11.3633 13.0605 10.9089 12.9137C10.5092 12.7845 10.079 12.7845 9.67922 12.9137C9.22485 13.0605 8.83017 13.4519 8.04082 14.2346L4.04193 18.2622M14.2647 15.9377L14.606 15.5991C15.412 14.7999 15.8149 14.4003 16.2773 14.2545C16.6839 14.1262 17.1208 14.1312 17.5244 14.2688C17.9832 14.4253 18.3769 14.834 19.1642 15.6515L20 16.5001M14.2647 15.9377L18.22 19.9628M18.22 19.9628C17.8703 20 17.4213 20 16.8 20H7.2C6.07989 20 5.51984 20 5.09202 19.782C4.7157 19.5903 4.40973 19.2843 4.21799 18.908C4.12583 18.7271 4.07264 18.5226 4.04193 18.2622M18.22 19.9628C18.5007 19.9329 18.7175 19.8791 18.908 19.782C19.2843 19.5903 19.5903 19.2843 19.782 18.908C20 18.4802 20 17.9201 20 16.8V13M11 4H7.2C6.07989 4 5.51984 4 5.09202 4.21799C4.7157 4.40973 4.40973 4.71569 4.21799 5.09202C4 5.51984 4 6.0799 4 7.2V16.8C4 17.4466 4 17.9066 4.04193 18.2622M18 9V6M18 6V3M18 6H21M18 6H15"
                  stroke="currentColor"
                  stroke-width="2"
                  stroke-linecap="round"
                  stroke-linejoin="round"
            />
      </symbol>
      <symbol fill="none" xmlns="http://www.w3.org/2000/svg" viewBox="0 0 24 24" id="icon-delete"
            >
            <path
                  d="M14.2639 15.9376L12.5958 14.2835C11.7909 13.4852 11.3884 13.0861 10.9266 12.9402C10.5204 12.8119 10.0838 12.8166 9.68048 12.9537C9.22188 13.1096 8.82814 13.5173 8.04068 14.3327L4.04409 18.2802M14.2639 15.9376L14.6053 15.5991C15.4112 14.7999 15.8141 14.4003 16.2765 14.2544C16.6831 14.1262 17.12 14.1312 17.5236 14.2688C17.9824 14.4252 18.3761 14.834 19.1634 15.6515L20 16.4936M14.2639 15.9376L18.275 19.9566M20.9992 6.00011H14.9992M11 3.99951L7.2 4.00011C6.07989 4.00011 5.51984 4.00011 5.09202 4.21809C4.71569 4.40984 4.40973 4.7158 4.21799 5.09213C4 5.51995 4 6.08 4 7.20011V16.8001C4 17.4576 4 17.9222 4.04409 18.2802M20 9.99951V16.4936M4.04409 18.2802C4.07512 18.5322 4.12796 18.7314 4.21799 18.9081C4.40973 19.2844 4.71569 19.5904 5.09202 19.7821C5.51984 20.0001 6.07989 20.0001 7.2 20.0001H16.8C17.9201 20.0001 18.4802 20.0001 18.908 19.7821C19.2843 19.5904 19.5903 19.2844 19.782 18.9081C20 18.4803 20 17.9202 20 16.8001V16.4936"
                  stroke="currentColor"
                  stroke-width="2"
                  stroke-linecap="round"
                  stroke-linejoin="round"
            />
      </symbol>
      <symbol fill="none" xmlns="http://www.w3.org/2000/svg" viewBox="0 0 24 24" id="icon-user"
            >
            <path
                  d="M14.0295 15.7412C14.1628 16.2772 14.7052 16.6037 15.2412 16.4705C15.7772 16.3372 16.1037 15.7948 15.9705 15.2588L14.0295 15.7412ZM8.02953 15.2588C7.89631 15.7948 8.2228 16.3372 8.75878 16.4705C9.29476 16.6037 9.83725 16.2772 9.97047 15.7412L8.02953 15.2588ZM12 8.5C11.4477 8.5 11 8.94772 11 9.5C11 10.0523 11.4477 10.5 12 10.5V8.5ZM12.01 10.5C12.5623 10.5 13.01 10.0523 13.01 9.5C13.01 8.94772 12.5623 8.5 12.01 8.5V10.5ZM4.09202 19.782L4.54601 18.891L4.09202 19.782ZM3.21799 18.908L4.10899 18.454L3.21799 18.908ZM20.782 18.908L19.891 18.454L20.782 18.908ZM19.908 19.782L19.454 18.891L19.908 19.782ZM19.908 4.21799L19.454 5.10899L19.908 4.21799ZM20.782 5.09202L19.891 5.54601L20.782 5.09202ZM4.09202 4.21799L4.54601 5.10899L4.09202 4.21799ZM3.21799 5.09202L4.10899 5.54601L3.21799 5.09202ZM12 9.5V11.5C13.1046 11.5 14 10.6046 14 9.5H12ZM12 9.5H10C10 10.6046 10.8954 11.5 12 11.5V9.5ZM12 9.5V7.5C10.8954 7.5 10 8.39543 10 9.5H12ZM12 9.5H14C14 8.39543 13.1046 7.5 12 7.5V9.5ZM12 14.5C13.145 14.5 13.8839 15.1554 14.0295 15.7412L15.9705 15.2588C15.5488 13.5624 13.817 12.5 12 12.5V14.5ZM9.97047 15.7412C10.1161 15.1554 10.855 14.5 12 14.5V12.5C10.183 12.5 8.45119 13.5624 8.02953 15.2588L9.97047 15.7412ZM12 10.5H12.01V8.5H12V10.5ZM6.2 5H17.8V3H6.2V5ZM20 7.2V16.8H22V7.2H20ZM17.8 19H6.2V21H17.8V19ZM4 16.8V7.2H2V16.8H4ZM6.2 19C5.62345 19 5.25117 18.9992 4.96784 18.9761C4.69617 18.9539 4.59545 18.9162 4.54601 18.891L3.63803 20.673C4.01641 20.8658 4.40963 20.9371 4.80497 20.9694C5.18864 21.0008 5.65645 21 6.2 21V19ZM2 16.8C2 17.3436 1.99922 17.8114 2.03057 18.195C2.06287 18.5904 2.13419 18.9836 2.32698 19.362L4.10899 18.454C4.0838 18.4045 4.04612 18.3038 4.02393 18.0322C4.00078 17.7488 4 17.3766 4 16.8H2ZM4.54601 18.891C4.35785 18.7951 4.20487 18.6422 4.10899 18.454L2.32698 19.362C2.6146 19.9265 3.07354 20.3854 3.63803 20.673L4.54601 18.891ZM20 16.8C20 17.3766 19.9992 17.7488 19.9761 18.0322C19.9539 18.3038 19.9162 18.4045 19.891 18.454L21.673 19.362C21.8658 18.9836 21.9371 18.5904 21.9694 18.195C22.0008 17.8114 22 17.3436 22 16.8H20ZM17.8 21C18.3436 21 18.8114 21.0008 19.195 20.9694C19.5904 20.9371 19.9836 20.8658 20.362 20.673L19.454 18.891C19.4045 18.9162 19.3038 18.9539 19.0322 18.9761C18.7488 18.9992 18.3766 19 17.8 19V21ZM19.891 18.454C19.7951 18.6422 19.6422 18.7951 19.454 18.891L20.362 20.673C20.9265 20.3854 21.3854 19.9265 21.673 19.362L19.891 18.454ZM17.8 5C18.3766 5 18.7488 5.00078 19.0322 5.02393C19.3038 5.04612 19.4045 5.0838 19.454 5.10899L20.362 3.32698C19.9836 3.13419 19.5904 3.06287 19.195 3.03057C18.8114 2.99922 18.3436 3 17.8 3V5ZM22 7.2C22 6.65645 22.0008 6.18864 21.9694 5.80497C21.9371 5.40963 21.8658 5.01641 21.673 4.63803L19.891 5.54601C19.9162 5.59545 19.9539 5.69617 19.9761 5.96784C19.9992 6.25117 20 6.62345 20 7.2H22ZM19.454 5.10899C19.6422 5.20487 19.7951 5.35785 19.891 5.54601L21.673 4.63803C21.3854 4.07354 20.9265 3.6146 20.362 3.32698L19.454 5.10899ZM6.2 3C5.65645 3 5.18864 2.99922 4.80497 3.03057C4.40963 3.06287 4.01641 3.13419 3.63803 3.32698L4.54601 5.10899C4.59545 5.0838 4.69617 5.04612 4.96784 5.02393C5.25117 5.00078 5.62345 5 6.2 5V3ZM4 7.2C4 6.62345 4.00078 6.25117 4.02393 5.96784C4.04612 5.69617 4.0838 5.59545 4.10899 5.54601L2.32698 4.63803C2.13419 5.01641 2.06287 5.40963 2.03057 5.80497C1.99922 6.18864 2 6.65645 2 7.2H4ZM3.63803 3.32698C3.07354 3.6146 2.6146 4.07354 2.32698 4.63803L4.10899 5.54601C4.20487 5.35785 4.35785 5.20487 4.54601 5.10899L3.63803 3.32698Z"
                  fill="currentColor" />
      </symbol>
      <symbol fill="none" xmlns="http://www.w3.org/2000/svg" viewBox="0 0 24 24" id="icon-settings"
            >
            <path fill-rule="evenodd" clip-rule="evenodd"
                  d="M12 8.25C9.92894 8.25 8.25 9.92893 8.25 12C8.25 14.0711 9.92894 15.75 12 15.75C14.0711 15.75 15.75 14.0711 15.75 12C15.75 9.92893 14.0711 8.25 12 8.25ZM9.75 12C9.75 10.7574 10.7574 9.75 12 9.75C13.2426 9.75 14.25 10.7574 14.25 12C14.25 13.2426 13.2426 14.25 12 14.25C10.7574 14.25 9.75 13.2426 9.75 12Z"
                  fill="currentColor" />
            <path fill-rule="evenodd" clip-rule="evenodd"
                  d="M11.9747 1.25C11.5303 1.24999 11.1592 1.24999 10.8546 1.27077C10.5375 1.29241 10.238 1.33905 9.94761 1.45933C9.27379 1.73844 8.73843 2.27379 8.45932 2.94762C8.31402 3.29842 8.27467 3.66812 8.25964 4.06996C8.24756 4.39299 8.08454 4.66251 7.84395 4.80141C7.60337 4.94031 7.28845 4.94673 7.00266 4.79568C6.64714 4.60777 6.30729 4.45699 5.93083 4.40743C5.20773 4.31223 4.47642 4.50819 3.89779 4.95219C3.64843 5.14353 3.45827 5.3796 3.28099 5.6434C3.11068 5.89681 2.92517 6.21815 2.70294 6.60307L2.67769 6.64681C2.45545 7.03172 2.26993 7.35304 2.13562 7.62723C1.99581 7.91267 1.88644 8.19539 1.84541 8.50701C1.75021 9.23012 1.94617 9.96142 2.39016 10.5401C2.62128 10.8412 2.92173 11.0602 3.26217 11.2741C3.53595 11.4461 3.68788 11.7221 3.68786 12C3.68785 12.2778 3.53592 12.5538 3.26217 12.7258C2.92169 12.9397 2.62121 13.1587 2.39007 13.4599C1.94607 14.0385 1.75012 14.7698 1.84531 15.4929C1.88634 15.8045 1.99571 16.0873 2.13552 16.3727C2.26983 16.6469 2.45535 16.9682 2.67758 17.3531L2.70284 17.3969C2.92507 17.7818 3.11058 18.1031 3.28089 18.3565C3.45817 18.6203 3.64833 18.8564 3.89769 19.0477C4.47632 19.4917 5.20763 19.6877 5.93073 19.5925C6.30717 19.5429 6.647 19.3922 7.0025 19.2043C7.28833 19.0532 7.60329 19.0596 7.8439 19.1986C8.08452 19.3375 8.24756 19.607 8.25964 19.9301C8.27467 20.3319 8.31403 20.7016 8.45932 21.0524C8.73843 21.7262 9.27379 22.2616 9.94761 22.5407C10.238 22.661 10.5375 22.7076 10.8546 22.7292C11.1592 22.75 11.5303 22.75 11.9747 22.75H12.0252C12.4697 22.75 12.8407 22.75 13.1454 22.7292C13.4625 22.7076 13.762 22.661 14.0524 22.5407C14.7262 22.2616 15.2616 21.7262 15.5407 21.0524C15.686 20.7016 15.7253 20.3319 15.7403 19.93C15.7524 19.607 15.9154 19.3375 16.156 19.1985C16.3966 19.0596 16.7116 19.0532 16.9974 19.2042C17.3529 19.3921 17.6927 19.5429 18.0692 19.5924C18.7923 19.6876 19.5236 19.4917 20.1022 19.0477C20.3516 18.8563 20.5417 18.6203 20.719 18.3565C20.8893 18.1031 21.0748 17.7818 21.297 17.3969L21.3223 17.3531C21.5445 16.9682 21.7301 16.6468 21.8644 16.3726C22.0042 16.0872 22.1135 15.8045 22.1546 15.4929C22.2498 14.7697 22.0538 14.0384 21.6098 13.4598C21.3787 13.1586 21.0782 12.9397 20.7378 12.7258C20.464 12.5538 20.3121 12.2778 20.3121 11.9999C20.3121 11.7221 20.464 11.4462 20.7377 11.2742C21.0783 11.0603 21.3788 10.8414 21.6099 10.5401C22.0539 9.96149 22.2499 9.23019 22.1547 8.50708C22.1136 8.19546 22.0043 7.91274 21.8645 7.6273C21.7302 7.35313 21.5447 7.03183 21.3224 6.64695L21.2972 6.60318C21.0749 6.21825 20.8894 5.89688 20.7191 5.64347C20.5418 5.37967 20.3517 5.1436 20.1023 4.95225C19.5237 4.50826 18.7924 4.3123 18.0692 4.4075C17.6928 4.45706 17.353 4.60782 16.9975 4.79572C16.7117 4.94679 16.3967 4.94036 16.1561 4.80144C15.9155 4.66253 15.7524 4.39297 15.7403 4.06991C15.7253 3.66808 15.686 3.2984 15.5407 2.94762C15.2616 2.27379 14.7262 1.73844 14.0524 1.45933C13.762 1.33905 13.4625 1.29241 13.1454 1.27077C12.8407 1.24999 12.4697 1.24999 12.0252 1.25H11.9747ZM10.5216 2.84515C10.5988 2.81319 10.716 2.78372 10.9567 2.76729C11.2042 2.75041 11.5238 2.75 12 2.75C12.4762 2.75 12.7958 2.75041 13.0432 2.76729C13.284 2.78372 13.4012 2.81319 13.4783 2.84515C13.7846 2.97202 14.028 3.21536 14.1548 3.52165C14.1949 3.61826 14.228 3.76887 14.2414 4.12597C14.271 4.91835 14.68 5.68129 15.4061 6.10048C16.1321 6.51968 16.9974 6.4924 17.6984 6.12188C18.0143 5.9549 18.1614 5.90832 18.265 5.89467C18.5937 5.8514 18.9261 5.94047 19.1891 6.14228C19.2554 6.19312 19.3395 6.27989 19.4741 6.48016C19.6125 6.68603 19.7726 6.9626 20.0107 7.375C20.2488 7.78741 20.4083 8.06438 20.5174 8.28713C20.6235 8.50382 20.6566 8.62007 20.6675 8.70287C20.7108 9.03155 20.6217 9.36397 20.4199 9.62698C20.3562 9.70995 20.2424 9.81399 19.9397 10.0041C19.2684 10.426 18.8122 11.1616 18.8121 11.9999C18.8121 12.8383 19.2683 13.574 19.9397 13.9959C20.2423 14.186 20.3561 14.29 20.4198 14.373C20.6216 14.636 20.7107 14.9684 20.6674 15.2971C20.6565 15.3799 20.6234 15.4961 20.5173 15.7128C20.4082 15.9355 20.2487 16.2125 20.0106 16.6249C19.7725 17.0373 19.6124 17.3139 19.474 17.5198C19.3394 17.72 19.2553 17.8068 19.189 17.8576C18.926 18.0595 18.5936 18.1485 18.2649 18.1053C18.1613 18.0916 18.0142 18.045 17.6983 17.8781C16.9973 17.5075 16.132 17.4803 15.4059 17.8995C14.68 18.3187 14.271 19.0816 14.2414 19.874C14.228 20.2311 14.1949 20.3817 14.1548 20.4784C14.028 20.7846 13.7846 21.028 13.4783 21.1549C13.4012 21.1868 13.284 21.2163 13.0432 21.2327C12.7958 21.2496 12.4762 21.25 12 21.25C11.5238 21.25 11.2042 21.2496 10.9567 21.2327C10.716 21.2163 10.5988 21.1868 10.5216 21.1549C10.2154 21.028 9.97201 20.7846 9.84514 20.4784C9.80512 20.3817 9.77195 20.2311 9.75859 19.874C9.72896 19.0817 9.31997 18.3187 8.5939 17.8995C7.86784 17.4803 7.00262 17.5076 6.30158 17.8781C5.98565 18.0451 5.83863 18.0917 5.73495 18.1053C5.40626 18.1486 5.07385 18.0595 4.81084 17.8577C4.74458 17.8069 4.66045 17.7201 4.52586 17.5198C4.38751 17.314 4.22736 17.0374 3.98926 16.625C3.75115 16.2126 3.59171 15.9356 3.4826 15.7129C3.37646 15.4962 3.34338 15.3799 3.33248 15.2971C3.28921 14.9684 3.37828 14.636 3.5801 14.373C3.64376 14.2901 3.75761 14.186 4.0602 13.9959C4.73158 13.5741 5.18782 12.8384 5.18786 12.0001C5.18791 11.1616 4.73165 10.4259 4.06021 10.004C3.75769 9.81389 3.64385 9.70987 3.58019 9.62691C3.37838 9.3639 3.28931 9.03149 3.33258 8.7028C3.34348 8.62001 3.37656 8.50375 3.4827 8.28707C3.59181 8.06431 3.75125 7.78734 3.98935 7.37493C4.22746 6.96253 4.3876 6.68596 4.52596 6.48009C4.66055 6.27983 4.74468 6.19305 4.81093 6.14222C5.07395 5.9404 5.40636 5.85133 5.73504 5.8946C5.83873 5.90825 5.98576 5.95483 6.30173 6.12184C7.00273 6.49235 7.86791 6.51962 8.59394 6.10045C9.31998 5.68128 9.72896 4.91837 9.75859 4.12602C9.77195 3.76889 9.80512 3.61827 9.84514 3.52165C9.97201 3.21536 10.2154 2.97202 10.5216 2.84515Z"
                  fill="currentColor" />
      </symbol>
      <symbol fill="none" xmlns="http://www.w3.org/2000/svg" viewBox="0 0 24 24" id="icon-bookmark"
            >
            <path
                  d="M5 6.2C5 5.07989 5 4.51984 5.21799 4.09202C5.40973 3.71569 5.71569 3.40973 6.09202 3.21799C6.51984 3 7.07989 3 8.2 3H15.8C16.9201 3 17.4802 3 17.908 3.21799C18.2843 3.40973 18.5903 3.71569 18.782 4.09202C19 4.51984 19 5.07989 19 6.2V21L12 16L5 21V6.2Z"
                  stroke="currentColor" stroke-width="2" stroke-linejoin="round" />
      </symbol>
      <symbol fill="none" xmlns="http://www.w3.org/2000/svg" viewBox="0 0 24 24" id="icon-play"
            >
            <path
                  d="M20.4086 9.35258C22.5305 10.5065 22.5305 13.4935 20.4086 14.6474L7.59662 21.6145C5.53435 22.736 3 21.2763 3 18.9671L3 5.0329C3 2.72368 5.53435 1.26402 7.59661 2.38548L20.4086 9.35258Z"
                  stroke="currentColor" stroke-width="1.5" />
      </symbol>
      <symbol fill="none" xmlns="http://www.w3.org/2000/svg" viewBox="0 0 24 24"
            id="icon-play-small"
            >
            <path fill-rule="evenodd" clip-rule="evenodd"
                  d="M3 5.49686C3 3.17662 5.52116 1.73465 7.52106 2.91106L18.5764 9.41423C20.5484 10.5742 20.5484 13.4259 18.5764 14.5858L7.52106 21.089C5.52116 22.2654 3 20.8234 3 18.5032V5.49686Z"
                  fill="currentColor" />
      </symbol>
      <symbol fill="none" xmlns="http://www.w3.org/2000/svg" viewBox="0 0 24 24" id="icon-search"
            >
            <path
                  d="M19.6464 20.3536C19.8417 20.5488 20.1583 20.5488 20.3536 20.3536C20.5488 20.1583 20.5488 19.8417 20.3536 19.6464L19.6464 20.3536ZM20.3536 19.6464L15.3536 14.6464L14.6464 15.3536L19.6464 20.3536L20.3536 19.6464Z"
                  fill="#000000" />
      </symbol>
      <symbol fill="none" xmlns="http://www.w3.org/2000/svg" viewBox="0 0 24 24" id="icon-prev"
            >
            <path
                  d="M20.2409 7.21957V16.7896C20.2409 18.7496 18.1109 19.9796 16.4109 18.9996L12.2609 16.6096L8.11094 14.2096C6.41094 13.2296 6.41094 10.7796 8.11094 9.79957L12.2609 7.39957L16.4109 5.00957C18.1109 4.02957 20.2409 5.24957 20.2409 7.21957Z"
                  fill="currentColor" />
            <path
                  d="M3.76172 18.9303C3.35172 18.9303 3.01172 18.5903 3.01172 18.1803V5.82031C3.01172 5.41031 3.35172 5.07031 3.76172 5.07031C4.17172 5.07031 4.51172 5.41031 4.51172 5.82031V18.1803C4.51172 18.5903 4.17172 18.9303 3.76172 18.9303Z"
                  fill="currentColor" />
      </symbol>
      <symbol fill="none" xmlns="http://www.w3.org/2000/svg" viewBox="0 0 24 24" id="icon-pause"
            >
            <path fill-rule="evenodd" clip-rule="evenodd"
                  d="M14 8C14.5523 8 15 8.44772 15 9L15 15C15 15.5523 14.5523 16 14 16C13.4477 16 13 15.5523 13 15L13 9C13 8.44772 13.4477 8 14 8ZM10 8C10.5523 8 11 8.44772 11 9L11 15C11 15.5523 10.5523 16 10 16C9.44771 16 9 15.5523 9 15L9 9C9 8.44772 9.44772 8 10 8ZM7.25007 2.38782C8.54878 2.0992 10.1243 2 12 2C13.8757 2 15.4512 2.0992 16.7499 2.38782C18.06 2.67897 19.1488 3.176 19.9864 4.01358C20.824 4.85116 21.321 5.94002 21.6122 7.25007C21.9008 8.54878 22 10.1243 22 12C22 13.8757 21.9008 15.4512 21.6122 16.7499C21.321 18.06 20.824 19.1488 19.9864 19.9864C19.1488 20.824 18.06 21.321 16.7499 21.6122C15.4512 21.9008 13.8757 22 12 22C10.1243 22 8.54878 21.9008 7.25007 21.6122C5.94002 21.321 4.85116 20.824 4.01358 19.9864C3.176 19.1488 2.67897 18.06 2.38782 16.7499C2.0992 15.4512 2 13.8757 2 12C2 10.1243 2.0992 8.54878 2.38782 7.25007C2.67897 5.94002 3.176 4.85116 4.01358 4.01358C4.85116 3.176 5.94002 2.67897 7.25007 2.38782Z"
                  fill="currentColor" />
      </symbol>
      <symbol fill="none" xmlns="http://www.w3.org/2000/svg" viewBox="0 0 24 24" id="icon-next"
            >
            <path
                  d="M3.76172 7.21957V16.7896C3.76172 18.7496 5.89172 19.9796 7.59172 18.9996L11.7417 16.6096L15.8917 14.2096C17.5917 13.2296 17.5917 10.7796 15.8917 9.79957L11.7417 7.39957L7.59172 5.00957C5.89172 4.02957 3.76172 5.24957 3.76172 7.21957Z"
                  fill="currentColor" />
            <path
                  d="M20.2383 18.9303C19.8283 18.9303 19.4883 18.5903 19.4883 18.1803V5.82031C19.4883 5.41031 19.8283 5.07031 20.2383 5.07031C20.6483 5.07031 20.9883 5.41031 20.9883 5.82031V18.1803C20.9883 18.5903 20.6583 18.9303 20.2383 18.9303Z"
                  fill="currentColor" />
      </symbol>
      <symbol fill="none" xmlns="http://www.w3.org/2000/svg" viewBox="0 0 24 24" id="icon-settings"
            >
            <path fill="currentColor"
                  d="M600.704 64a32 32 0 0 1 30.464 22.208l35.2 109.376c14.784 7.232 28.928 15.36 42.432 24.512l112.384-24.192a32 32 0 0 1 34.432 15.36L944.32 364.8a32 32 0 0 1-4.032 37.504l-77.12 85.12a357.12 357.12 0 0 1 0 49.024l77.12 85.248a32 32 0 0 1 4.032 37.504l-88.704 153.6a32 32 0 0 1-34.432 15.296L708.8 803.904c-13.44 9.088-27.648 17.28-42.368 24.512l-35.264 109.376A32 32 0 0 1 600.704 960H423.296a32 32 0 0 1-30.464-22.208L357.696 828.48a351.616 351.616 0 0 1-42.56-24.64l-112.32 24.256a32 32 0 0 1-34.432-15.36L79.68 659.2a32 32 0 0 1 4.032-37.504l77.12-85.248a357.12 357.12 0 0 1 0-48.896l-77.12-85.248A32 32 0 0 1 79.68 364.8l88.704-153.6a32 32 0 0 1 34.432-15.296l112.32 24.256c13.568-9.152 27.776-17.408 42.56-24.64l35.2-109.312A32 32 0 0 1 423.232 64H600.64zm-23.424 64H446.72l-36.352 113.088-24.512 11.968a294.113 294.113 0 0 0-34.816 20.096l-22.656 15.36-116.224-25.088-65.28 113.152 79.68 88.192-1.92 27.136a293.12 293.12 0 0 0 0 40.192l1.92 27.136-79.808 88.192 65.344 113.152 116.224-25.024 22.656 15.296a294.113 294.113 0 0 0 34.816 20.096l24.512 11.968L446.72 896h130.688l36.48-113.152 24.448-11.904a288.282 288.282 0 0 0 34.752-20.096l22.592-15.296 116.288 25.024 65.28-113.152-79.744-88.192 1.92-27.136a293.12 293.12 0 0 0 0-40.256l-1.92-27.136 79.808-88.128-65.344-113.152-116.288 24.96-22.592-15.232a287.616 287.616 0 0 0-34.752-20.096l-24.448-11.904L577.344 128zM512 320a192 192 0 1 1 0 384 192 192 0 0 1 0-384zm0 64a128 128 0 1 0 0 256 128 128 0 0 0 0-256z" />
      </symbol>
      <symbol fill="none" xmlns="http://www.w3.org/2000/svg" viewBox="0 0 24 24"
            id="icon-fullScreen"
            >
            <path
                  d="M9.00002 3.99998H4.00004L4 9M20 8.99999V4L15 3.99997M15 20H20L20 15M4 15L4 20L9.00002 20"
                  stroke="currentColor" stroke-width="1.5" stroke-linecap="round"
                  stroke-linejoin="round" />
      </symbol>
      <symbol fill="none" xmlns="http://www.w3.org/2000/svg" viewBox="0 0 24 24"
            id="icon-smallScreen"
            >
            <path d="M9 4.00012V7.00012C9 8.10469 8.10457 9.00012 7 9.00012H4" stroke="currentColor"
                  stroke-width="2.5" stroke-linecap="round" stroke-linejoin="round" />
            <path d="M15 20.0001L15 17.0001C15 15.8956 15.8954 15.0001 17 15.0001L20 15.0001"
                  stroke="currentColor" stroke-width="2.5" stroke-linecap="round"
                  stroke-linejoin="round" />
            <path d="M20 9.00012L17 9.00012C15.8954 9.00012 15 8.10469 15 7.00012L15 4.00012"
                  stroke="currentColor" stroke-width="2.5" stroke-linecap="round"
                  stroke-linejoin="round" />
            <path d="M4 15.0001L7 15.0001C8.10457 15.0001 9 15.8956 9 17.0001L9 20.0001"
                  stroke="currentColor" stroke-width="2.5" stroke-linecap="round"
                  stroke-linejoin="round" />
      </symbol>
      <symbol fill="none" xmlns="http://www.w3.org/2000/svg" viewBox="0 0 24 24"
            id="icon-screenShot"
            >
            <path
                  d="M24,0 L24,24 L0,24 L0,0 L24,0 Z M12.5934901,23.257841 L12.5819402,23.2595131 L12.5108777,23.2950439 L12.4918791,23.2987469 L12.4918791,23.2987469 L12.4767152,23.2950439 L12.4056548,23.2595131 C12.3958229,23.2563662 12.3870493,23.2590235 12.3821421,23.2649074 L12.3780323,23.275831 L12.360941,23.7031097 L12.3658947,23.7234994 L12.3769048,23.7357139 L12.4804777,23.8096931 L12.4953491,23.8136134 L12.4953491,23.8136134 L12.5071152,23.8096931 L12.6106902,23.7357139 L12.6232938,23.7196733 L12.6232938,23.7196733 L12.6266527,23.7031097 L12.609561,23.275831 C12.6075724,23.2657013 12.6010112,23.2592993 12.5934901,23.257841 L12.5934901,23.257841 Z M12.8583906,23.1452862 L12.8445485,23.1473072 L12.6598443,23.2396597 L12.6498822,23.2499052 L12.6498822,23.2499052 L12.6471943,23.2611114 L12.6650943,23.6906389 L12.6699349,23.7034178 L12.6699349,23.7034178 L12.678386,23.7104931 L12.8793402,23.8032389 C12.8914285,23.8068999 12.9022333,23.8029875 12.9078286,23.7952264 L12.9118235,23.7811639 L12.8776777,23.1665331 C12.8752882,23.1545897 12.8674102,23.1470016 12.8583906,23.1452862 L12.8583906,23.1452862 Z M12.1430473,23.1473072 C12.1332178,23.1423925 12.1221763,23.1452606 12.1156365,23.1525954 L12.1099173,23.1665331 L12.0757714,23.7811639 C12.0751323,23.7926639 12.0828099,23.8018602 12.0926481,23.8045676 L12.108256,23.8032389 L12.3092106,23.7104931 L12.3186497,23.7024347 L12.3186497,23.7024347 L12.3225043,23.6906389 L12.340401,23.2611114 L12.337245,23.2485176 L12.337245,23.2485176 L12.3277531,23.2396597 L12.1430473,23.1473072 Z"
                  id="MingCute" fill-rule="nonzero">

            </path>
            <path
                  d="M17,5 C18.0543909,5 18.9181678,5.81587733 18.9945144,6.85073759 L19,7 L19,17 L21,17 C21.5523,17 22,17.4477 22,18 C22,18.51285 21.613973,18.9355092 21.1166239,18.9932725 L21,19 L19,19 L19,21 C19,21.5523 18.5523,22 18,22 C17.48715,22 17.0644908,21.613973 17.0067275,21.1166239 L17,21 L17,7 L9,7 L9,5 L17,5 Z M6,2 C6.51283143,2 6.93550653,2.38604429 6.9932722,2.88337975 L7,3 L7,17 L15,17 L15,19 L7,19 C5.94563773,19 5.08183483,18.18415 5.00548573,17.1492661 L5,17 L5,7 L3,7 C2.44772,7 2,6.55228 2,6 C2,5.48716857 2.38604429,5.06449347 2.88337975,5.0067278 L3,5 L5,5 L5,3 C5,2.44772 5.44772,2 6,2 Z"
                  id="形状" fill="currentColor">

            </path>
      </symbol>

      <symbol fill="none" xmlns="http://www.w3.org/2000/svg" viewBox="0 0 24 24"
            id="icon-arrow-up"
            >
            <path
                  d="M7.47004 12.2808L7.55415 12.3535C7.84777 12.5713 8.26443 12.5471 8.5307 12.2808L11.2501 9.56152L11.2504 16.2512L11.2572 16.353C11.3069 16.7191 11.6207 17.0012 12.0004 17.0012L12.1021 16.9944C12.4682 16.9447 12.7504 16.6309 12.7504 16.2512L12.7501 9.55952L15.4708 12.2814L15.5549 12.3541C15.8484 12.572 16.2651 12.5479 16.5314 12.2817C16.8244 11.9888 16.8245 11.5139 16.5316 11.221L12.5316 7.21947L12.4475 7.14682C12.1539 6.92889 11.7372 6.95306 11.4709 7.21936L7.47004 11.2202L7.39742 11.3043C7.17956 11.5979 7.20377 12.0146 7.47004 12.2808Z"
                  fill="currentColor" />
            <path
                  d="M22.0007 12.0007C22.0007 6.47788 17.5236 2.00073 12.0007 2.00073C6.47788 2.00073 2.00073 6.47788 2.00073 12.0007C2.00073 17.5236 6.47788 22.0007 12.0007 22.0007C17.5236 22.0007 22.0007 17.5236 22.0007 12.0007ZM3.50073 12.0007C3.50073 7.30631 7.30631 3.50073 12.0007 3.50073C16.6952 3.50073 20.5007 7.30631 20.5007 12.0007C20.5007 16.6952 16.6952 20.5007 12.0007 20.5007C7.30631 20.5007 3.50073 16.6952 3.50073 12.0007Z"
                  fill="currentColor" />
      </symbol>
</svg>