<svg width="50" height="50" viewBox="0 0 50 50" fill="none" xmlns="http://www.w3.org/2000/svg">
<path d="M0 25C0 11.1929 11.1929 0 25 0V0C38.8071 0 50 11.1929 50 25V25C50 38.8071 38.8071 50 25 50V50C11.1929 50 0 38.8071 0 25V25Z" fill="black"/>
<path d="M14.8068 32H10.5455L17.7614 17.4545H23.1591L25.5455 32H21.2841L19.8636 21.4602H19.75L14.8068 32ZM14.9773 26.2614H22.9886L22.4773 29.2159H14.4659L14.9773 26.2614ZM26.9464 32L29.3612 17.4545H33.31L31.435 28.8182H37.3157L36.7759 32H26.9464Z" fill="white"/>
</svg>
